<?xml version="1.0" encoding="utf-8"?>
<!-- Generator: Adobe Illustrator 16.0.4, SVG Export Plug-In . SVG Version: 6.00 Build 0)  -->
<!DOCTYPE svg PUBLIC "-//W3C//DTD SVG 1.1//EN" "http://www.w3.org/Graphics/SVG/1.1/DTD/svg11.dtd">
<svg version="1.1" id="Layer_1" xmlns="http://www.w3.org/2000/svg" xmlns:xlink="http://www.w3.org/1999/xlink" x="0px" y="0px"
	 width="576px" height="504px" viewBox="0 0 576 504" enable-background="new 0 0 576 504" xml:space="preserve">
<g>
	<g>
		<path fill="none" stroke="#00D8FF" stroke-width="13.3805" stroke-miterlimit="10" d="M242.931,178.022
			c31.237,0,60.251,4.479,82.133,12.013c26.359,9.078,42.573,22.833,42.573,35.291c0,12.98-17.175,27.596-45.492,36.969
			c-21.401,7.096-49.564,10.797-79.214,10.797c-30.402,0-59.184-3.476-80.827-10.877c-27.38-9.353-43.874-24.153-43.874-36.889
			c0-12.355,15.475-26.005,41.473-35.066C181.652,182.601,211.389,178.022,242.931,178.022z"/>
		<path fill="none" stroke="#00D8FF" stroke-width="13.3805" stroke-miterlimit="10" d="M201.755,201.813
			c15.601-27.062,33.983-49.958,51.432-65.147c21.029-18.308,41.043-25.47,51.843-19.248c11.245,6.482,15.325,28.664,9.298,57.872
			c-4.547,22.084-15.402,48.329-30.215,74.012c-15.188,26.335-32.582,49.535-49.798,64.589
			c-21.786,19.043-42.859,25.936-53.885,19.578c-10.695-6.17-14.79-26.398-9.663-53.443
			C175.112,257.182,185.994,229.132,201.755,201.813z"/>
		<path fill="none" stroke="#00D8FF" stroke-width="13.3805" stroke-miterlimit="10" d="M201.79,249.37
			c-15.646-27.035-26.299-54.387-30.756-77.098c-5.353-27.361-1.557-48.278,9.22-54.521c11.233-6.502,32.484,1.046,54.781,20.839
			c16.863,14.976,34.182,37.488,49.037,63.155c15.232,26.304,26.645,52.958,31.089,75.393c5.611,28.392,1.072,50.077-9.946,56.448
			c-10.697,6.197-30.267-0.359-51.136-18.316C236.461,300.102,217.592,276.669,201.79,249.37z"/>
		<path fill="#00D8FF" d="M264.58,226.757c0,12.853-10.411,23.266-23.253,23.266c-12.859,0-23.273-10.413-23.273-23.266
			c0-12.845,10.414-23.256,23.273-23.256C254.168,203.501,264.58,213.912,264.58,226.757z"/>
	</g>
	<path fill="none" stroke="#445A64" stroke-width="21.905" stroke-miterlimit="10" d="M429.125,225.547
		c0,102.832-83.36,186.186-186.191,186.186c-102.825,0-186.191-83.354-186.191-186.186c0-102.833,83.366-186.193,186.191-186.193
		C345.765,39.354,429.125,122.714,429.125,225.547z"/>
	<path fill="#445A64" d="M519.257,207.965c0,19.156-15.53,34.687-34.686,34.687h-56.815v-69.598h56.815v0.231
		C503.727,173.285,519.257,188.809,519.257,207.965z M485.48,187.574c-11.192,0-20.273,9.081-20.273,20.273
		c0,11.201,9.081,20.279,20.273,20.279c11.204,0,20.272-9.078,20.272-20.279C505.752,196.655,496.684,187.574,485.48,187.574z"/>
	<g>
		<g>
			
				<line fill="none" stroke="#445A64" stroke-width="24.6205" stroke-linecap="round" stroke-linejoin="round" x1="487.71" y1="275.809" x2="487.71" y2="275.809"/>
			
				<line fill="none" stroke="#445A64" stroke-width="24.6205" stroke-linecap="round" stroke-linejoin="round" stroke-dasharray="0,47.2095" x1="487.71" y1="323.018" x2="487.71" y2="441.042"/>
			
				<line fill="none" stroke="#445A64" stroke-width="24.6205" stroke-linecap="round" stroke-linejoin="round" x1="487.71" y1="464.646" x2="487.71" y2="464.646"/>
		</g>
	</g>
</g>
</svg>
