<?xml version="1.0" encoding="utf-8"?>
<!-- Generator: Adobe Illustrator 16.0.4, SVG Export Plug-In . SVG Version: 6.00 Build 0)  -->
<!DOCTYPE svg PUBLIC "-//W3C//DTD SVG 1.1//EN" "http://www.w3.org/Graphics/SVG/1.1/DTD/svg11.dtd">
<svg version="1.1" id="Layer_1" xmlns="http://www.w3.org/2000/svg" xmlns:xlink="http://www.w3.org/1999/xlink" x="0px" y="0px"
	 width="300px" height="100px" viewBox="0 0 1080 360" enable-background="new 0 0 1080 360" xml:space="preserve">
<g>
	<path fill="#00D8FF" d="M384.984,208.192V26.433h77.826c8.019,0,15.399,1.666,22.141,4.992c6.742,3.327,12.548,7.768,17.411,13.312
		c4.865,5.547,8.655,11.774,11.394,18.686c2.725,6.917,4.096,13.947,4.096,21.123c0,6.313-0.897,12.411-2.69,18.303
		c-1.79,5.887-4.35,11.225-7.682,16c-3.321,4.777-7.338,8.875-12.032,12.288c-4.694,3.412-9.94,5.887-15.737,7.423l44.028,69.634
		h-26.11l-41.471-65.277h-48.134v65.277H384.984z M408.023,122.434h55.043c4.776,0,9.088-1.023,12.928-3.077
		c3.841-2.044,7.125-4.821,9.855-8.314c2.729-3.5,4.863-7.558,6.401-12.167c1.533-4.605,2.3-9.377,2.3-14.331
		c0-5.122-0.89-9.942-2.685-14.465c-1.792-4.523-4.187-8.534-7.166-12.034c-2.993-3.493-6.49-6.227-10.496-8.194
		c-4.016-1.962-8.234-2.938-12.672-2.938h-53.509V122.434z"/>
	<path fill="#00D8FF" d="M606.937,210.753c-10.072,0-19.291-1.838-27.648-5.51c-8.365-3.661-15.53-8.658-21.505-14.972
		c-5.979-6.313-10.626-13.699-13.953-22.146s-4.992-17.36-4.992-26.751c0-9.386,1.665-18.255,4.992-26.622
		c3.327-8.358,8.022-15.704,14.084-22.013c6.05-6.318,13.269-11.305,21.63-14.977c8.36-3.671,17.576-5.504,27.645-5.504
		c10.07,0,19.243,1.876,27.525,5.629c8.278,3.757,15.311,8.75,21.122,14.976c5.796,6.232,10.272,13.484,13.438,21.759
		c3.155,8.276,4.736,16.858,4.736,25.732c0,1.876-0.046,3.58-0.133,5.116c-0.086,1.537-0.215,2.733-0.385,3.58H562.645
		c0.512,6.663,2.05,12.723,4.613,18.179c2.556,5.466,5.884,10.161,9.982,14.082c4.092,3.929,8.743,6.998,13.949,9.218
		c5.209,2.217,10.709,3.327,16.513,3.327c4.096,0,8.103-0.555,12.031-1.666c3.925-1.105,7.597-2.599,11.01-4.479
		c3.411-1.871,6.439-4.184,9.088-6.912c2.647-2.729,4.649-5.801,6.019-9.213l19.451,5.375c-2.218,4.955-5.24,9.473-9.082,13.569
		c-3.847,4.093-8.284,7.635-13.314,10.622c-5.035,2.991-10.623,5.337-16.767,7.041C619.99,209.892,613.594,210.753,606.937,210.753z
		 M652.759,132.414c-0.511-6.314-2.088-12.157-4.734-17.533c-2.653-5.38-5.977-9.941-9.985-13.699
		c-4.014-3.752-8.665-6.696-13.949-8.831c-5.292-2.129-10.929-3.202-16.901-3.202c-5.971,0-11.607,1.072-16.892,3.202
		c-5.294,2.135-9.943,5.116-13.955,8.96c-4.011,3.839-7.256,8.409-9.725,13.698c-2.479,5.284-3.973,11.09-4.479,17.404H652.759z"/>
	<path fill="#00D8FF" d="M735.188,210.753c-6.653,0-12.794-1.072-18.428-3.197c-5.635-2.135-10.502-5.04-14.59-8.707
		c-4.094-3.671-7.296-8.022-9.605-13.057c-2.308-5.035-3.458-10.368-3.458-16.001c0-6.313,1.368-12.071,4.104-17.279
		c2.727-5.208,6.613-9.636,11.649-13.316c5.028-3.666,11.005-6.48,17.916-8.448c6.917-1.958,14.461-2.944,22.654-2.944
		c6.48,0,13.063,0.603,19.709,1.795c6.653,1.196,12.55,2.814,17.668,4.868v-10.76c0-10.917-3.074-19.491-9.219-25.722
		c-6.142-6.228-14.847-9.344-26.105-9.344c-13.494,0-27.655,5.208-42.498,15.614l-7.421-14.594
		c8.693-5.801,17.314-10.153,25.849-13.053c8.534-2.901,17.408-4.352,26.627-4.352c17.067,0,30.551,4.696,40.452,14.078
		c9.894,9.386,14.835,22.615,14.835,39.684v54.527c0,5.294,2.396,8.021,7.174,8.189v19.457c-1.708,0.34-3.325,0.599-4.857,0.766
		c-1.536,0.167-2.992,0.259-4.361,0.259c-3.752,0-7.413-1.024-11.002-3.073c-3.584-2.049-5.548-5.548-5.884-10.496l-0.521-9.473
		c-3.067,4.097-6.575,7.682-10.491,10.755c-3.925,3.068-8.109,5.629-12.546,7.678c-4.437,2.048-9.008,3.585-13.693,4.609
		C744.449,210.24,739.797,210.753,735.188,210.753z M740.822,193.856c7.174,0,14.167-1.536,20.993-4.609
		c6.829-3.072,12.201-6.825,16.135-11.268c3.231-3.747,4.858-7.251,4.858-10.492v-19.71c-5.287-2.052-10.876-3.628-16.774-4.738
		c-5.886-1.105-11.557-1.666-17.014-1.666c-11.611,0-20.913,2.35-27.91,7.041c-7.002,4.696-10.491,11.138-10.491,19.332
		c0,3.413,0.676,6.696,2.044,9.856c1.369,3.154,3.326,5.925,5.892,8.313c2.556,2.394,5.713,4.312,9.473,5.768
		C731.775,193.129,736.049,193.856,740.822,193.856z"/>
	<path fill="#00D8FF" d="M827.598,141.12c0-9.381,1.623-18.26,4.869-26.626c3.24-8.357,7.85-15.657,13.82-21.888
		c5.975-6.228,13.096-11.171,21.378-14.843c8.276-3.671,17.539-5.504,27.775-5.504c13.312,0,24.785,2.944,34.429,8.831
		c9.646,5.887,16.938,13.785,21.894,23.679l-22.017,6.911c-3.419-6.312-8.189-11.219-14.338-14.723
		c-6.144-3.494-12.971-5.246-20.479-5.246c-6.146,0-11.947,1.239-17.408,3.714c-5.46,2.475-10.156,5.93-14.082,10.372
		c-3.925,4.438-7.036,9.641-9.342,15.614c-2.307,5.972-3.456,12.54-3.456,19.709c0,7.003,1.187,13.57,3.582,19.711
		c2.391,6.145,5.593,11.482,9.602,16c4.01,4.523,8.702,8.06,14.08,10.621c5.379,2.561,11.137,3.844,17.28,3.844
		c3.923,0,7.808-0.555,11.649-1.666c3.844-1.105,7.334-2.599,10.493-4.48c3.156-1.876,5.929-4.054,8.321-6.523
		c2.39-2.474,4.098-5.16,5.121-8.069l22.018,6.658c-2.054,4.948-4.911,9.472-8.576,13.564c-3.677,4.098-7.982,7.601-12.929,10.496
		c-4.955,2.906-10.459,5.213-16.516,6.917c-6.052,1.699-12.411,2.561-19.066,2.561c-10.075,0-19.292-1.876-27.652-5.634
		c-8.365-3.752-15.53-8.787-21.505-15.106c-5.977-6.312-10.623-13.693-13.951-22.142
		C829.265,159.423,827.598,150.506,827.598,141.12z"/>
	<path fill="#00D8FF" d="M1048.789,201.539c-1.369,0.685-3.163,1.488-5.375,2.431c-2.225,0.938-4.738,1.877-7.553,2.815
		c-2.819,0.938-5.887,1.699-9.215,2.298c-3.331,0.598-6.785,0.904-10.371,0.904c-8.194,0-15.278-2.264-21.247-6.787
		c-5.977-4.524-8.961-11.56-8.961-21.118v-89.86h-18.178V74.56h18.178V30.018h22.529V74.56h29.95v17.662h-29.95v82.944
		c0.337,4.953,1.958,8.534,4.859,10.75c2.902,2.221,6.313,3.331,10.242,3.331c4.436,0,8.489-0.723,12.163-2.178
		c3.667-1.445,6.18-2.599,7.553-3.455L1048.789,201.539z"/>
	<path fill="#445A64" d="M458.616,332.854v-54.436l-25.784,40.827h-7.88l-25.639-40.827v54.436h-14.329v-79.508h15.332
		l28.646,46.562l28.796-46.562H472.8v79.508H458.616z"/>
	<path fill="#445A64" d="M617.092,279.85v53.005h-14.328v-79.508h11.177l49.703,54.15v-54.15h14.185v79.508h-11.746L617.092,279.85z
		"/>
	<path fill="#445A64" d="M742.74,333.429c-6.207,0-11.844-1.148-16.903-3.441c-5.063-2.292-9.408-5.322-13.037-9.095
		c-3.631-3.771-6.444-8.07-8.45-12.894c-2.006-4.819-3.012-9.813-3.012-14.968c0-5.256,1.051-10.29,3.155-15.121
		c2.096-4.814,5.012-9.088,8.739-12.812c3.722-3.729,8.113-6.687,13.178-8.884c5.064-2.201,10.599-3.297,16.615-3.297
		c6.211,0,11.839,1.172,16.903,3.512c5.064,2.341,9.41,5.395,13.039,9.167c3.627,3.776,6.422,8.093,8.381,12.961
		c1.954,4.873,2.933,9.794,2.933,14.762c0,5.252-1.023,10.291-3.077,15.105c-2.054,4.829-4.941,9.104-8.667,12.829
		c-3.724,3.718-8.119,6.682-13.178,8.883C754.294,332.327,748.756,333.429,742.74,333.429z M715.807,293.17
		c0,3.537,0.621,6.949,1.861,10.242c1.246,3.3,3.059,6.232,5.443,8.813c2.388,2.578,5.231,4.632,8.527,6.154
		c3.295,1.532,7.042,2.292,11.245,2.292c4.293,0,8.091-0.804,11.386-2.431c3.296-1.623,6.088-3.724,8.383-6.304
		c2.292-2.579,4.034-5.518,5.226-8.812c1.194-3.293,1.793-6.662,1.793-10.095c0-3.532-0.645-6.949-1.936-10.243
		c-1.285-3.297-3.102-6.208-5.439-8.74c-2.344-2.532-5.163-4.561-8.451-6.093c-3.299-1.522-7-2.287-11.105-2.287
		c-4.201,0-7.979,0.813-11.319,2.436c-3.341,1.627-6.16,3.724-8.452,6.304c-2.289,2.575-4.054,5.514-5.3,8.808
		C716.428,286.507,715.807,289.829,715.807,293.17z"/>
	<path fill="#445A64" d="M807.792,292.457c0-4.772,0.935-9.524,2.798-14.255c1.86-4.729,4.577-8.955,8.161-12.679
		c3.581-3.724,7.975-6.754,13.182-9.095c5.204-2.34,11.106-3.512,17.688-3.512c7.837,0,14.591,1.603,20.278,4.801
		c5.675,3.196,9.856,7.38,12.529,12.53l-11.029,7.596c-1.144-2.293-2.578-4.226-4.298-5.801c-1.718-1.574-3.562-2.819-5.518-3.724
		c-1.959-0.905-4.013-1.574-6.157-2.011c-2.153-0.426-4.226-0.641-6.231-0.641c-4.494,0-8.402,0.813-11.746,2.436
		c-3.347,1.627-6.138,3.724-8.385,6.304c-2.235,2.575-3.931,5.514-5.083,8.808c-1.14,3.292-1.716,6.567-1.716,9.816
		c0,3.629,0.667,7.112,2.006,10.453c1.336,3.347,3.223,6.305,5.655,8.883c2.435,2.581,5.302,4.635,8.597,6.161
		c3.296,1.527,6.947,2.294,10.96,2.294c2.097,0,4.251-0.241,6.442-0.719c2.199-0.479,4.299-1.216,6.305-2.221
		c2.004-1.001,3.869-2.312,5.588-3.939c1.716-1.623,3.156-3.532,4.294-5.725l11.754,6.873c-1.345,2.958-3.271,5.58-5.806,7.873
		c-2.535,2.294-5.37,4.231-8.526,5.808c-3.147,1.573-6.514,2.767-10.095,3.579c-3.584,0.813-7.09,1.216-10.531,1.216
		c-6.016,0-11.535-1.187-16.547-3.58c-5.013-2.389-9.356-5.514-13.033-9.382c-3.677-3.867-6.524-8.261-8.526-13.181
		C808.795,302.508,807.792,297.521,807.792,292.457z"/>
	<path fill="#445A64" d="M907.375,332.854v-79.508h14.331v66.901h43.262v12.606H907.375z"/>
	<path fill="#445A64" d="M1048.789,320.248v12.606h-60.313v-79.508h59.164v12.604h-44.834v20.634h38.964v11.602h-38.964v22.062
		H1048.789z"/>
	<path fill="#445A64" d="M537.712,333.429c-6.21,0-11.845-1.148-16.904-3.441c-5.063-2.292-9.408-5.322-13.037-9.095
		c-3.631-3.771-6.448-8.07-8.454-12.894c-2.004-4.819-3.007-9.813-3.007-14.968c0-5.256,1.05-10.29,3.15-15.121
		c2.1-4.814,5.014-9.088,8.741-12.812c3.724-3.729,8.115-6.687,13.176-8.884c5.064-2.201,10.603-3.297,16.619-3.297
		c6.207,0,11.839,1.172,16.903,3.512c5.064,2.341,9.408,5.395,13.039,9.167c3.627,3.776,6.422,8.093,8.381,12.961
		c1.954,4.873,2.933,9.794,2.933,14.762c0,5.252-1.025,10.291-3.077,15.105c-2.056,4.829-4.941,9.104-8.671,12.829
		c-3.722,3.718-8.117,6.682-13.178,8.883C549.264,332.327,543.728,333.429,537.712,333.429z M510.779,293.17
		c0,3.537,0.621,6.949,1.861,10.242c1.242,3.3,3.057,6.232,5.442,8.813c2.387,2.578,5.232,4.632,8.528,6.154
		c3.295,1.532,7.04,2.292,11.245,2.292c4.293,0,8.091-0.804,11.386-2.431c3.296-1.623,6.088-3.724,8.381-6.304
		c2.294-2.579,4.036-5.518,5.228-8.812c1.194-3.293,1.793-6.662,1.793-10.095c0-3.532-0.646-6.949-1.938-10.243
		c-1.283-3.297-3.1-6.208-5.439-8.74c-2.342-2.532-5.161-4.561-8.453-6.093c-3.295-1.522-6.996-2.287-11.101-2.287
		c-4.206,0-7.979,0.813-11.32,2.436c-3.341,1.627-6.16,3.724-8.452,6.304c-2.289,2.575-4.058,5.514-5.3,8.808
		C511.4,286.507,510.779,289.829,510.779,293.17z"/>
	<g>
		<g>
			<path fill="none" stroke="#00D8FF" stroke-width="8.6502" stroke-miterlimit="10" d="M151.58,116.08
				c20.195,0,38.952,2.894,53.098,7.765c17.041,5.869,27.522,14.762,27.522,22.814c0,8.391-11.104,17.839-29.409,23.902
				c-13.836,4.584-32.042,6.979-51.211,6.979c-19.652,0-38.261-2.248-52.252-7.032c-17.701-6.044-28.362-15.616-28.362-23.849
				c0-7.985,10.003-16.812,26.81-22.67C111.965,119.04,131.189,116.08,151.58,116.08z"/>
			<path fill="none" stroke="#00D8FF" stroke-width="8.6502" stroke-miterlimit="10" d="M124.96,131.461
				c10.086-17.497,21.97-32.298,33.25-42.118c13.595-11.834,26.533-16.465,33.515-12.442c7.27,4.19,9.908,18.53,6.012,37.413
				c-2.94,14.275-9.958,31.243-19.535,47.847c-9.817,17.022-21.062,32.021-32.192,41.754
				c-14.082,12.312-27.707,16.767-34.835,12.658c-6.913-3.989-9.562-17.066-6.247-34.551
				C107.735,167.254,114.771,149.121,124.96,131.461z"/>
			<path fill="none" stroke="#00D8FF" stroke-width="8.6502" stroke-miterlimit="10" d="M124.982,162.205
				c-10.114-17.478-17-35.162-19.882-49.842c-3.461-17.69-1.007-31.212,5.961-35.247c7.262-4.206,20.999,0.675,35.414,13.472
				c10.902,9.68,22.097,24.235,31.7,40.828c9.849,17.004,17.226,34.237,20.101,48.74c3.627,18.356,0.691,32.373-6.432,36.494
				c-6.915,4.007-19.565-0.234-33.058-11.842C147.397,195.001,135.2,179.853,124.982,162.205z"/>
			<path fill="#00D8FF" d="M165.575,147.587c0,8.307-6.729,15.039-15.032,15.039c-8.314,0-15.045-6.732-15.045-15.039
				c0-8.305,6.73-15.037,15.045-15.037C158.845,132.55,165.575,139.282,165.575,147.587z"/>
		</g>
		<path fill="none" stroke="#445A64" stroke-width="14.1611" stroke-miterlimit="10" d="M271.951,146.801
			c0,66.481-53.89,120.366-120.369,120.366c-66.474,0-120.369-53.885-120.369-120.366c0-66.478,53.896-120.368,120.369-120.368
			C218.061,26.433,271.951,80.323,271.951,146.801z"/>
		<path fill="#445A64" d="M330.218,135.436c0,12.385-10.039,22.425-22.423,22.425h-36.729v-44.996h36.729v0.151
			C320.179,113.016,330.218,123.051,330.218,135.436z M308.381,122.255c-7.233,0-13.105,5.87-13.105,13.107
			c0,7.239,5.872,13.11,13.105,13.11c7.245,0,13.107-5.871,13.107-13.11C321.489,128.125,315.626,122.255,308.381,122.255z"/>
		<g>
			<g>
				
					<line fill="none" stroke="#445A64" stroke-width="15.9166" stroke-linecap="round" stroke-linejoin="round" x1="309.827" y1="179.297" x2="309.827" y2="179.297"/>
				
					<line fill="none" stroke="#445A64" stroke-width="15.9166" stroke-linecap="round" stroke-linejoin="round" stroke-dasharray="0,29.0268" x1="309.827" y1="208.323" x2="309.827" y2="309.917"/>
				
					<line fill="none" stroke="#445A64" stroke-width="15.9166" stroke-linecap="round" stroke-linejoin="round" x1="309.827" y1="324.431" x2="309.827" y2="324.431"/>
			</g>
		</g>
	</g>
</g>
</svg>
